<svg xmlns="http://www.w3.org/2000/svg" viewBox="0 0 397.1 317.6"><path d="M263.7,0l3,.5a41.3,41.3,0,0,1,18.1,8.1,83.5,83.5,0,0,1,16.6,17c7.9,10.7,14,22.3,19.4,34.3a355.8,355.8,0,0,1,18.4,53.2c4.7,17.2,8.5,34.7,11.5,52.3q2.9,16.8,5.1,33.6c1.4,11.2,2.7,22.4,3.7,33.6s1.6,22.8,2.3,34.2c1.1,16.4,1.2,33,1.4,49.5v1.2H318c0-.7-.1-1.2-.1-1.8-.1-8.3-.1-16.6-.3-24.9-.3-14.1-.8-28.1-1.3-42.1q-.6-13.8-1.5-27.6c-.7-10-1.6-20.1-2.5-30.2-.6-7.8-1.4-15.6-2.3-23.3-1.2-10.2-2.6-20.3-4-30.4-1.8-12.8-4.1-25.5-6.7-38.1-3.2-15-7-30-12.4-44.4A103.9,103.9,0,0,0,277,34.3a30.9,30.9,0,0,0-8.1-8.8c-4.9-3.6-10.2-3.7-15.2-.4a31.3,31.3,0,0,0-8.5,8.5,85.4,85.4,0,0,0-8.9,16.6c-5,11.7-8.6,24-11.7,36.3-3.6,14.5-6.4,29-8.6,43.7-1.7,11.3-3.3,22.6-4.7,34-1,9-1.9,18-2.6,27-1,12.6-1.9,25.3-2.6,38-1.2,21.1-1.8,42.3-1.7,63.4v2.2H159.2c0-.6-.1-1.2-.1-1.7-.1-7.7-.1-15.3-.3-22.9q-.6-20.5-1.5-41.1c-.3-7.7-.8-15.5-1.4-23.3s-1.3-16.4-2.1-24.6-1.4-14.9-2.3-22.3c-1.2-9.6-2.6-19.1-4-28.7-1.9-12.5-4.3-24.8-7.1-37.1a267.8,267.8,0,0,0-12-40.1,97.9,97.9,0,0,0-10.2-19.5,32.2,32.2,0,0,0-6.9-7.4,14.7,14.7,0,0,0-9.5-3.4,13.2,13.2,0,0,0-6,1.9,29.7,29.7,0,0,0-8,7.8,86.2,86.2,0,0,0-9.1,16.9A246.2,246.2,0,0,0,68,82.8c-3.4,13.3-6.2,26.8-8.3,40.4-1.9,12-3.7,24.1-5.3,36.2-1.2,9.3-2.1,18.6-3,27.9s-1.9,20.9-2.5,31.4c-.9,14.1-1.6,28.2-2.3,42.3-.8,18.3-1.1,36.7-1,55a6.6,6.6,0,0,1-.1,1.4l-.9.2H0V298.8a19.7,19.7,0,0,0,.3-2.4c.4-9.9.8-19.9,1.3-29.9.5-13.1,1.5-26.1,2.8-39.1,1-9.5,2.1-18.9,3.2-28.4,1.4-11.8,3.3-23.5,5.4-35.2,3-17,6.7-33.9,11.2-50.5A354.3,354.3,0,0,1,42.9,59.4,178.6,178.6,0,0,1,62.1,25.7a80.6,80.6,0,0,1,16.5-17C84.1,4.7,90,1.6,96.8.5l3.3-.5h5l.9.3a37.5,37.5,0,0,1,11.8,3.1c7.5,3.3,13.8,8.4,19.4,14.3a125.2,125.2,0,0,1,17.7,24.5A243.8,243.8,0,0,1,174,85.3c2.5,7.3,4.7,14.7,7.1,22.1.2.5.1,1.2.8,1.6l.3-1.1a342.5,342.5,0,0,1,17.9-49.4A173.9,173.9,0,0,1,219,26.2a86.3,86.3,0,0,1,18.2-18A43.7,43.7,0,0,1,255.5.5l3.1-.5Z" fill="#ffc501"/><path d="M397.1,306.2a10.8,10.8,0,0,1-10.9,11.3,11.2,11.2,0,0,1-11.6-11.4,11.4,11.4,0,0,1,11.3-11.2C391.7,294.8,397.5,299.6,397.1,306.2Zm-1.9,0c0-7.1-6.6-11.6-12.9-9-3.9,1.7-6.1,5.8-5.6,10.4a9.3,9.3,0,0,0,11.6,8A9.2,9.2,0,0,0,395.2,306.2Z" fill="#ffc501"/><path d="M387.9,307c1.2,2,2.3,3.7,3.5,5.5-1.9.4-1.9.4-2.8-1a32.1,32.1,0,0,1-1.9-3.1c-.6-1.3-1.5-1.6-3-1.2v5.5h-2V299.8l1-.2a48.7,48.7,0,0,1,5.4.1c2.5.3,3.7,2.3,3,4.8a3,3,0,0,1-1.8,2Zm-4.2-1.5c1.4-.1,2.7,0,4-.2a2.1,2.1,0,0,0-.2-4c-1.2-.1-2.5,0-3.8,0Z" fill="#ffc501"/></svg>