<svg xmlns="http://www.w3.org/2000/svg" viewBox="0 0 649.9 212.7"><path d="M135.7,0c1.6.6,3.2,1.1,4.7,1.8,5.5,2.7,8.2,7.3,8.6,13.3s-1.8,12.6-5.2,18.1a44.4,44.4,0,0,1-4.6,5.9,10.7,10.7,0,0,1-8.1,3.5,5.1,5.1,0,0,1-5.2-4.4,13.7,13.7,0,0,1,1.6-9.3,21.1,21.1,0,0,1,5.2-6.3,11.5,11.5,0,0,1,6.9-2.4c1.6-.2,1.7-.1,2.1-1.7,1-3.6-.4-7.6-5.1-8.4a16.6,16.6,0,0,0-9.1,1.2,74,74,0,0,0-24.7,14.8c-4.4,3.8-8.7,7.8-12.8,12A259.7,259.7,0,0,0,63.3,70.5a234.1,234.1,0,0,0-18.1,29.6,167.9,167.9,0,0,0-15.8,45.6,45.7,45.7,0,0,0-.5,5.2c-.2,2.6-.3,5.1-.3,7.7a47.1,47.1,0,0,0,2.7,15.7,27.8,27.8,0,0,0,7.4,11.4,35.2,35.2,0,0,0,6.4,4.5,48.4,48.4,0,0,0,24.1,6.2,104.7,104.7,0,0,0,21.6-2.7c10.1-2.2,20.1-4.6,30.1-7l34.9-8.6a215.1,215.1,0,0,1,27.8-4.7,154.8,154.8,0,0,1,20.4-.9,96,96,0,0,1,33,6.6,93.5,93.5,0,0,1,18.2,10.3,190.3,190.3,0,0,1,16.7,12.9,55.9,55.9,0,0,1,9.6,10.4l-1.1-.6a85.7,85.7,0,0,0-36.8-14.3,59.9,59.9,0,0,0-9.5-.7,47.4,47.4,0,0,0-11.8,1.3,29.8,29.8,0,0,0-16.7,12.2l-.7,1-.7-1.2A41,41,0,0,0,182,192.5a70.3,70.3,0,0,0-21.4-3.8,126.9,126.9,0,0,0-32.5,3.4c-8.2,1.8-16.3,4.1-24.4,6-10.5,2.5-20.9,5-31.4,7.2A110.8,110.8,0,0,1,57,207.7c-11.8,1.1-23.2-.5-33.7-6.5A42.6,42.6,0,0,1,2.4,173.8,55.2,55.2,0,0,1,.3,161c-.1-3.5-.4-7-.2-10.5a100.3,100.3,0,0,1,2.8-18.9,152.9,152.9,0,0,1,10.9-31.3A208.9,208.9,0,0,1,45.6,52.6c3.8-4.2,7.8-8.4,11.8-12.4a213.4,213.4,0,0,1,28-23.1c3.4-2.3,7.1-4.4,10.8-6.4A104.6,104.6,0,0,1,113,3.3a55,55,0,0,1,14.5-3l.7-.3Z" fill="#f50002"/><path d="M591.6,31.4l3-5.9c.9-1.9,1.7-3.7,2.5-5.6a19.3,19.3,0,0,0,1.5-6.8c.2-2.1-1-3-3.1-2.3a27.3,27.3,0,0,0-8.1,5c-2.8,2.4-5.5,5-8.3,7.6s-4.6,4.1-6.7,6.4c-4.1,4.4-8.1,8.8-11.9,13.4a405.1,405.1,0,0,0-32.9,47.1c-4.9,8.1-9.6,16.3-14.3,24.5-2.3,4-4.3,8.2-6.4,12.3l-.7,1.7a4.9,4.9,0,0,0,2.3-1.1c3.6-2.7,7.2-5.4,10.7-8.4s8-7.2,11.8-11,9-8.7,13.3-13.2a348.7,348.7,0,0,0,29.5-34.7,1.9,1.9,0,0,1,1.4-.9l6.6-.7c-1.4,2.1-2.6,4-3.9,5.7a326.7,326.7,0,0,1-21.7,26.6c-6.4,7.2-13,14.1-19.9,20.8a282.2,282.2,0,0,1-26.2,22.7c-3.2,2.5-6.5,4.8-9.7,7.2a4.7,4.7,0,0,0-1.3,1.5c-5.1,10.8-9.4,21.8-11.9,33.4-.6,2.7-1.2,5.5-.5,8.3a7.1,7.1,0,0,0,1.5,3,3.6,3.6,0,0,0,4.4.7,21.2,21.2,0,0,0,6.6-5.3,130.4,130.4,0,0,0,13.6-18.6c7.3-11.6,14.7-23.1,23.4-33.7,3.2-3.7,6.5-7.5,9.9-11a84.9,84.9,0,0,1,18-14.1,20.7,20.7,0,0,1,12.6-3,9.9,9.9,0,0,1,7.6,3.9l2.6,3.4c1.4-1.5,1.9-3.4,3.2-5h20.7a11.7,11.7,0,0,1-.5,1.1l-20.1,35.7L580.7,159c-2.8,4.7-5.7,9.3-8.3,14.1s-3.5,7.1-5.2,10.7a7.8,7.8,0,0,0-.5,1.4,2.2,2.2,0,0,0,2.8,2.7,4.6,4.6,0,0,0,1.6-.7c2.5-1.9,5.2-3.7,7.5-5.8,5.6-5,10.1-10.9,14.3-17,2.4-3.4,4.7-6.8,7-10.3h6.9l-.8,1.6a247.4,247.4,0,0,1-22.9,31.2,85.3,85.3,0,0,1-14.9,13.9,62.1,62.1,0,0,1-11.3,6.2,12.1,12.1,0,0,1-7,.8,7.5,7.5,0,0,1-6.7-5.5,16.3,16.3,0,0,1-.9-8.2,15.7,15.7,0,0,0,.3-2.7l-2,2A78.3,78.3,0,0,1,528,203.8a28.9,28.9,0,0,1-7.3,3.5,13.4,13.4,0,0,1-8.4,0c-4.1-1.2-6.3-4.3-7.3-8.3a22.9,22.9,0,0,1-.5-9.4,18.9,18.9,0,0,0,0-2.4l-3.9,4.5c-4.5,5-9.3,9.8-15.2,13.2a20.2,20.2,0,0,1-7.5,2.9c-6,.9-10.3-1.9-12.9-6.6a17.5,17.5,0,0,1-2.1-7.5c-.5-6.1.6-12,2.3-17.9s4.5-14.5,6.8-21.7l.6-2.1h-1.5c-2.7.4-5.5.8-8.2,1a2.5,2.5,0,0,0-2.2,1.3c-3.3,5.6-6.7,11.2-10.2,16.6a126.7,126.7,0,0,1-17.4,21.2,69.8,69.8,0,0,1-18.7,13.5,22.1,22.1,0,0,1-9.8,2.3c-5.5,0-9.1-2.7-11.3-7.5a24.3,24.3,0,0,1-1.7-10.7c.4-8.7,3-16.8,6.4-24.7,5.4-12.7,12.9-24,21.6-34.7,2.8-3.4,5.7-6.6,8.8-9.7a72.5,72.5,0,0,1,20.4-14.8,27.6,27.6,0,0,1,12.6-3.1c6,.2,9.4,2.9,11.2,8.6a24.9,24.9,0,0,1,.6,9.8c-.7,8.3-3.9,15.8-7.3,23.2l-1,2.1,1.3.3a26.5,26.5,0,0,0,8.7-2.2,3.7,3.7,0,0,0,1.7-1.8c5.8-12,11.8-23.9,18.6-35.3,4.9-8.3,9.9-16.5,15.2-24.5a307.3,307.3,0,0,1,28.8-37.4c4.1-4.6,8.3-9,12.7-13.4A221.7,221.7,0,0,1,573.7,13c4.9-3.7,10-7.1,15.8-9.2a20.9,20.9,0,0,1,9.9-1.2,6.9,6.9,0,0,1,5.4,6A26.7,26.7,0,0,1,603,21.4c-1,2.5-2.3,5-3.4,7.4a2.9,2.9,0,0,1-2,1.7l-5.8,1.3ZM530.1,183.6c0,3,2,4.6,4.7,4a7.1,7.1,0,0,0,2.5-1.1,26.2,26.2,0,0,0,6.6-5.8,215.5,215.5,0,0,0,18.1-27l13.8-24.2c2-3.5,4.1-6.9,6.2-10.4a3.7,3.7,0,0,0,.5-3.4c-.6-1.6-2.1-2.4-4.1-2.1a12.4,12.4,0,0,0-6,3.1c-2.4,2-4.8,4.1-7,6.3a143.8,143.8,0,0,0-10.2,11.8A243.6,243.6,0,0,0,541.1,156a94.6,94.6,0,0,0-9,18A32.3,32.3,0,0,0,530.1,183.6Zm-92.6-47.2-.8,1a146.8,146.8,0,0,0-15.6,25.7,55,55,0,0,0-4.5,13.7,14.3,14.3,0,0,0,.3,6.5,5.8,5.8,0,0,0,5.7,4.2,11.5,11.5,0,0,0,5.7-2,42.8,42.8,0,0,0,9.8-8.7,117,117,0,0,0,13.6-19.2l3-5.8C447.4,148.3,441.4,143.7,437.5,136.4Zm20.5,9.1c.2-.2.3-.2.3-.3,3.9-7.1,7.4-14.3,8.2-22.5a16.8,16.8,0,0,0-.5-6.7c-1.2-3.3-2.9-4.2-5.8-3.9a12.8,12.8,0,0,0-4.2,1.3,26.2,26.2,0,0,0-6.7,5.2c-4.5,5.1-5.9,10.9-3.2,17a18,18,0,0,0,9.4,9Z" fill="#f50002"/><path d="M145.8,90.7a4.3,4.3,0,0,0,3-.3,37.6,37.6,0,0,0,8.8-4.8A81.3,81.3,0,0,0,172,73.2a111.2,111.2,0,0,1,16.2-14.5A41.2,41.2,0,0,1,201.4,52a21.4,21.4,0,0,1,13,.4c4.9,1.8,7.8,7.1,8,11.5s-1.7,11-4.4,15.9a25.8,25.8,0,0,1-7.1,8.3,7.9,7.9,0,0,1-5.2,1.8,5.1,5.1,0,0,1-5-4.3,11.9,11.9,0,0,1,1.8-8.4,35,35,0,0,1,3.3-4.3,10.9,10.9,0,0,1,8.4-3.7h.8c2.2-3.6.4-7.4-3.5-7.7a12.6,12.6,0,0,0-2.7.4,17.4,17.4,0,0,0-6.9,3.5,107.1,107.1,0,0,0-20.5,22.5,147.8,147.8,0,0,0-11,18.9,124.6,124.6,0,0,0-6.4,15.6,22.9,22.9,0,0,0-1.1,10.7,21.9,21.9,0,0,0,1,3.4,8.1,8.1,0,0,0,8.9,4.8,24.6,24.6,0,0,0,10.3-4.6c4.8-3.2,8.8-7.4,12.8-11.5A194.6,194.6,0,0,0,210.2,108c3.5-4.7,6.8-9.4,10.2-14.1a215.3,215.3,0,0,1,15.9-19.8,115.9,115.9,0,0,1,15.3-14.4c4.2-3.3,8.7-6.2,13.9-7.7a18.3,18.3,0,0,1,7-.5,11.6,11.6,0,0,1,8,4.7l1.1,1.5c.6-.9,1.2-1.7,1.7-2.6a1.8,1.8,0,0,1,1.7-1h19.5l-1.3,2.4L279.8,97.3,261.5,129a11.1,11.1,0,0,0-1.3,3.6c-.4,2.4,1.2,3.7,3.4,2.7a28,28,0,0,0,5.2-3.2,81.2,81.2,0,0,0,13-13.2c3.5-4.3,6.8-8.7,10.2-13.2a2.7,2.7,0,0,1,2.4-1.2h5.4a4.6,4.6,0,0,1-.3.9,289.7,289.7,0,0,1-20.1,26.6c-6.3,7.1-13,13.8-20.8,19.3-3.1,2.1-6.3,4.1-10.1,4.8a19.5,19.5,0,0,1-5.9.1c-3.1-.6-5-2.8-6.1-5.8a13.6,13.6,0,0,1-.7-6,18.7,18.7,0,0,0,.1-3.4l-1,1c-4.7,5-9.7,9.4-15.9,12.4a18.4,18.4,0,0,1-9.2,2.2c-4.1-.2-7.6-1.6-9.8-5.4a12.5,12.5,0,0,1-1.7-6.8,39.9,39.9,0,0,1,1.8-11.9c.2-.7.3-1.4.6-2.4l-.9.5-9.1,8.7c-5.7,5.3-11.6,10.3-18.7,13.7a32.7,32.7,0,0,1-16.5,3.6c-7-.4-11.8-4.1-14.7-10.4-2-4.5-2.3-9.3-2.4-14.1s1.5-9.4,3.1-13.9a142.6,142.6,0,0,1,9.1-19.4l.9-1.7v-.4l-1.2.2-7.4,1.8a2.1,2.1,0,0,0-1.8,1.3c-3.7,6-7.3,12-11.1,18a80.6,80.6,0,0,1-11.1,14.3c-2.9,3-5.6,6.2-8.6,9a66.8,66.8,0,0,1-17.5,12.8,23.7,23.7,0,0,1-9.8,2.5,12.9,12.9,0,0,1-13-9.2,28.4,28.4,0,0,1-1.4-10.4c.3-10,3.4-19.1,7.6-28,5.4-11.7,12.8-22,21.3-31.6a108.2,108.2,0,0,1,20.8-18.6A46.1,46.1,0,0,1,133,52a20,20,0,0,1,7.7-.6c5.5.7,9.2,3.8,10.7,9.1a26.5,26.5,0,0,1,.5,10.5,60.7,60.7,0,0,1-4.7,16.1Zm131.8-26c-.7-2.3-1.8-3.1-4-3.1a9.9,9.9,0,0,0-4.4,1.4,26.7,26.7,0,0,0-7.7,6.5c-4.5,5.5-9,11-13.3,16.6a167.2,167.2,0,0,0-18.8,29.7,62.7,62.7,0,0,0-5.1,13.9,8.4,8.4,0,0,0-.5,3.1,4,4,0,0,0,6.2,3.1,33.2,33.2,0,0,0,8.9-7.4A95.6,95.6,0,0,0,249,114.1c4.9-8.1,9.6-16.2,14.3-24.4S272.9,73,277.6,64.7ZM134.2,98.1c-8.2-2.4-14.7-6.7-18.9-14.1l-.5.5c-5.6,8-11,16.2-15.1,25-2.6,5.5-4.8,11.1-5.5,17.1a10.2,10.2,0,0,0,1.8,7.2,4.2,4.2,0,0,0,3.7,1.9,9.9,9.9,0,0,0,5.8-1.5,41.5,41.5,0,0,0,9.8-8.4c3.2-3.8,6.4-7.6,9.3-11.7s5.7-9.1,8.5-13.7C133.5,99.7,133.7,99.1,134.2,98.1Zm10.5-27.9a12.9,12.9,0,0,0-1-5.8,5,5,0,0,0-5-3.3,11.4,11.4,0,0,0-6.2,1.7,23.3,23.3,0,0,0-8.9,10.7c-1.8,4.8-1.2,9.1,2.7,12.7a17.8,17.8,0,0,0,9.5,4.9c2,.4,2.3.3,3.1-1.7s2.1-4.6,3-7A36.7,36.7,0,0,0,144.7,70.2Z" fill="#f50002"/><path d="M341.4,167.4c.2-1.4.3-2.9.5-4.3a99,99,0,0,1,10.1-31c5.3-10,12.4-18.2,22.2-24a37,37,0,0,1,15.5-5.2c5.4-.5,10.4,2.2,12.4,6.8a25.4,25.4,0,0,1,2.1,10.1,61.7,61.7,0,0,1-5.7,25.7,128.6,128.6,0,0,1-20.6,33.3,105.3,105.3,0,0,1-28,23.5,41.1,41.1,0,0,1-24.2,5.5,26.3,26.3,0,0,1-15.9-7c-6.6-6.1-9.9-13.9-11.3-22.6a61.1,61.1,0,0,1-.6-13.5,76.7,76.7,0,0,1,3.3-17.7,192.6,192.6,0,0,1,8.6-23.4,214.2,214.2,0,0,1,14.3-26.7,275.3,275.3,0,0,1,20.7-29.6c4.1-5.2,8.6-10.2,13.1-15.1s7.6-8,11.5-11.9c11.5-11.1,24-21,38.2-28.6A112.5,112.5,0,0,1,432.8,1.6a35.9,35.9,0,0,1,8.1-1,28.3,28.3,0,0,1,7.7.6,19,19,0,0,1,9.7,5.3l6.5-2.2A56.5,56.5,0,0,1,485.5.6a55.5,55.5,0,0,1,24,5.5c6,2.9,11.8,6.1,17.6,9.3s14.5,8.5,21.7,12.7l1.3.9L534.3,45.8a43.6,43.6,0,0,1-4.2-2.3l-15.7-10c-7-4.5-13.9-9.2-21.3-13.1A73.4,73.4,0,0,0,472.2,13a17.8,17.8,0,0,0-6.9,0,28,28,0,0,0-3.1.9c0,2.9.1,5.6-.1,8.3A54,54,0,0,1,458.3,39c-1.5,3.9-3.1,7.7-4.9,11.4A95.2,95.2,0,0,1,445,63.6a67,67,0,0,1-14.2,14.9,36.8,36.8,0,0,1-12.2,6.1,13.4,13.4,0,0,1-6.6,0c-3-.6-4.8-2.6-6-5.3a18,18,0,0,1-1.2-10.5,43.9,43.9,0,0,1,4.1-12.2,92.8,92.8,0,0,1,14.7-23,118.2,118.2,0,0,1,25.5-21.8l1.6-1c.1-.1.1-.2.2-.4a10.1,10.1,0,0,0-3.9-.9,23.4,23.4,0,0,0-11.9,2.7,122.1,122.1,0,0,0-26.8,18c-4.5,3.8-8.8,7.8-12.9,11.9a292.3,292.3,0,0,0-19.3,22.2c-6.2,7.8-12.3,15.6-17.7,23.9a304.7,304.7,0,0,0-15.6,26.4A171.8,171.8,0,0,0,332,139.5a127.7,127.7,0,0,0-5.7,25.2,31.1,31.1,0,0,0,1.4,15.4c2.2,5.8,6.1,9.7,12.2,11.3,3.7,1,7.3.3,10.9-1a45.8,45.8,0,0,0,13.6-8.5,97.2,97.2,0,0,0,18.1-20.3,93.1,93.1,0,0,0,11.8-22.8c2-5.8,3.6-11.7,3.4-17.8a13.4,13.4,0,0,0-.7-4c-.8-2.4-2.2-3.7-5.5-3.4a12.5,12.5,0,0,0-7.9,3.9,51.1,51.1,0,0,0-12.9,21.2c-.8,2.4-1.4,5-2,7.5a2.2,2.2,0,0,1-1.4,1.7c-3.2,1.8-6.4,3.5-9.4,5.5a94.1,94.1,0,0,0-16.1,14.1ZM455.7,16.2l-2.5,1.3a87.4,87.4,0,0,0-22.8,18.7,105,105,0,0,0-12.7,17.6,60.2,60.2,0,0,0-5.8,12.3,19.7,19.7,0,0,0-1,6.8,5.3,5.3,0,0,0,5.4,5.2,8.7,8.7,0,0,0,4.8-1.4A55.4,55.4,0,0,0,434.5,66a84.3,84.3,0,0,0,12.3-16.8,73.4,73.4,0,0,0,9-29.5C455.9,18.7,455.7,17.6,455.7,16.2Z" fill="#f50002"/><path d="M556,54.4c1.3-1.6,2.3-3.1,3.5-4.5L570,37.3a1.9,1.9,0,0,1,1.9-.8l4.6.2a67,67,0,0,0,23.1-3.3A106.3,106.3,0,0,0,625.2,21,121,121,0,0,0,643.6,6.7L649.9.6c-.3.7-.4,1.1-.6,1.5a112.8,112.8,0,0,1-15.2,21.7,110.2,110.2,0,0,1-19.2,16.8,93.1,93.1,0,0,1-23.6,11.8A70.7,70.7,0,0,1,573,56a56.9,56.9,0,0,1-15.4-1.1Z" fill="#f50002"/><path d="M308.3,71.9l2.7-4.7c2.4-3.9,4.9-7.8,7.2-11.7a2.6,2.6,0,0,1,2.6-1.4c5.4.1,10.7,0,16.1,0h1.7c-.3.5-.4.9-.6,1.2-3.1,5.1-6.3,10.2-9.4,15.4a2.4,2.4,0,0,1-2.4,1.3H308.3Z" fill="#f50002"/></svg>