<svg xmlns="http://www.w3.org/2000/svg" viewBox="0 0 534.5 309.8"><path d="M348.8,27.3l5.6-4.2a13.1,13.1,0,0,1,1.6,3.4,82.8,82.8,0,0,1,.1,21.1,4.9,4.9,0,0,0,1.1,3.3A50.5,50.5,0,0,0,371,61.4l1.9,1.1-1.1,1.2c2.3-.6,4.1-1.3,6-1.7a9.9,9.9,0,0,1,2.9.3,8,8,0,0,1-2.5,1.1c-5.7,1.2-11.4,2.3-17.2,3.3-2,.3-2.6,1.2-2.4,3.2a3.8,3.8,0,0,1-.4,2.4c-3.2,4.8-2.9,10.1-1.8,15.3s2.5,7.6,3.4,11.5.7,6.3,1.1,9.4a11.6,11.6,0,0,0,6.1,9.4c1.5.8,2.2,2.9,3.6,5l-3,.3H268.4c-2.1,0-2.8-1-3.4-2.8h18.8l-2.6-2.9c-1.7-1.8-1.5-2.8.6-4s1.7-1.6.7-2.9a7,7,0,0,1-1.1-2.3c-.6-3.3-2.6-5.5-5.3-7.3s-4.1-3.1-6.2-4.6a2,2,0,0,1-.5-3.2,44,44,0,0,1,3.7-3.8c3.3-2.9,6.7-5.7,10-8.7a5.5,5.5,0,0,0,1.4-2.2L284,78a28.2,28.2,0,0,0-3.6,2.4c-2.5,2.1-4.5,4.8-7.3,6.4-4.6,2.8-7.4,7.2-10.4,11.3-4.4,6-4.6,16.6-.6,22.7a8.7,8.7,0,0,1,.8,2.3H222.8c.8-1.7,1.7-2.9,3.9-2.9h22.7c1.9,0,2.4-.6,2.1-2.4a17.7,17.7,0,0,1,.5-3.2,2.3,2.3,0,0,0-.5-1.6c-1.1-.7-1.1-1.5-.8-2.6L254.9,92a9.9,9.9,0,0,1,1.4-2.7l.9.3c-.4,2.9-.7,5.8-1.3,8.6s-1.5,6.3-2.3,9.5-1.3,3.5-.1,5.5.1,2,0,3c-.5,2.6.5,4,3.2,4,.4,0,1.2-.9,1.2-1.4s-.8-3.5-3.2-4c.9-4.7,1.8-9.1,2.6-13.6l.6-2.5c.4-2.6,1-5.2,1.2-7.9s4-3.4,4.7-6.7c-4.8,1.4-9.4,2.6-13.8,4.3s-5.7,4.1-5.6,8.2c0,1.6-.5,3.1-2.2,3.6s-4.1,1.3-5.9-.6a5.2,5.2,0,0,0-1-1.1c-1.6-1.4-3.2-2.3-5.3-1a36.8,36.8,0,0,1-4.4,1.7c2.7,6,2.7,11.9-.9,17.5a15.9,15.9,0,0,1-11.5,7.4A17,17,0,0,1,193.5,105l-8-1.8a10.6,10.6,0,0,1,1.7-1.6,16.9,16.9,0,0,1,2.7-1.2,18.4,18.4,0,0,0,9.1-5.7c1.7-1.9,4.5-2.9,7.1-4.5-3.9.3-7.5.4-11.1.9-1.4.1-2.3-.1-2.7-1.4-1.7-5.1-4.6-6.7-10.3-6-12.2,1.6-23.9-1.3-35.4-5.2-4.9-1.6-10.3-2.3-15.2.6s-4.6,4.6-2.9,7.9a19.5,19.5,0,0,1,21.6,5.6,7.8,7.8,0,0,0,3.2,1.8c2.4.8,4.8,1.3,7.3,1.9V97l-6.8,1.8c2.3,8.8.4,16.3-7,21.8a18,18,0,0,1-20.4,1.4c-8.8-4.7-11.4-12.6-9.6-22.2l-7.1-1.6v-.6c2.4-.7,4.7-1.6,7.1-2.2a7,7,0,0,0,3.9-2.4c1.3-1.6,3.1-2.8,4.5-4.3a1.9,1.9,0,0,0,.8-1.6c-.8-4.4.7-7.8,4.6-10a11.1,11.1,0,0,1,1.9-.9c3.7-1.1,5.4-3.6,5.6-7.3l.3-3.7c.4-4.3-.4-7.8-5.4-9.2a10,10,0,0,1-4.5-2.9,15.8,15.8,0,0,1-3.2-5.4c-.9-2.5.6-4,3.3-3.7a10.3,10.3,0,0,1,2.5.7l1.9.9c.5-.9,1-2.3,1.3-2.2a6.4,6.4,0,0,1,2.5,1.2,1,1,0,0,1,.4.5c1.3,3.6,4.3,4.3,7.6,4.5,6.7.5,13.4.8,20,1.6a50.9,50.9,0,0,1,11,2.9c4.2,1.6,7,4.9,9.3,8.7s6.1,9.4,9.4,14c10.3,14.5,30.5,9.5,36.7-3.7,2.5-5.3,5.1-10.5,7.8-15.7a44.3,44.3,0,0,1,10.6-13.7l2.9-2.1.5.5-1.2,1.5c-3.6,5-7.2,10-10.7,15.1a4.5,4.5,0,0,0-.5,5c1.1,2.1,1.8,4.3,3.1,6.2a10.2,10.2,0,0,0,10.7,4.5c1.5-.2,1.9-.7,1.8-2.2-.3-6.7.6-13.2,4.1-19.1a17.4,17.4,0,0,1,8.1-7.3c1.6-.7,3-1.8,4.6-2.7,7.6-3.9,15.2-4.2,23.4-.9-.8.9-1.5,1.6-2.1,2.4a69.2,69.2,0,0,0-15.9,29.1,2.9,2.9,0,0,1-1.4,1.8c-3.2,1.1-6.5,1.9-9.7,2.8V70.7l-3.7,2-.7-1.6-1.2,2c3.3.7,1.4,3.6,3.1,5.5l-7.9,1.5c-.2-1.5-.5-2.7-.7-4-9.9,1.9-14.2-4.2-17.3-12.6-.6,1.5-1.1,2.6-1.6,3.6-1.8,4-3.5,8.1-5.6,12-2.9,5.7-7.4,9.6-14,10.8l-2.1.5-.2.2c2.2,1.2,4.2,1.9,7,1.1,9.4-2.6,18.9-5.9,28.7-7,13.3-1.5,25.7-5.5,38.3-9.5,7.9-2.5,15.6-5.8,23.5-8.7l2.4-.9c3.2,4.2,6.3,8.2,9.4,12.4l-1.2.3c-6.6,1.4-13,1.7-19.4-1.3-4.2-2-8.7-2.8-13.2-.8l-.8.3-.4.4c.8,2.8-.7,4.9-2.7,6.7s-5.1,4.4-7.7,6.7-3,4.2-1.1,7.2a39.1,39.1,0,0,0,5,5.9c1.7,1.9,3.2,3.5,2.8,6.7s.5,6.5.8,10l1.7.2h64.4c1.1,0,2.3.2,2.4-1.4s1.4-2.9-1-3.5c-.5-.1-.7-1.3-.9-2-.6-2.7-.4-5.9-1.8-8.1-3.9-5.9-5.3-12.8-7.9-19.2a3.3,3.3,0,0,0-2.6-2.2,74.1,74.1,0,0,1-8-2.5c-7-2.7-10.9-8.1-13-15.1-.5-1.8-.2-2.8,1.7-3.8,6.5-3.2,12.9-6.5,19-10.2,2.7-1.6,4.7-3.1,8-1.8,1.6.6,3.6-.1,5.8-.2l-1.1-2.6,1.6.4c1.3-4.5,1.1-18-.4-23.4l-4.1,2.9c-.7.5-1.3.8-1.7-.4ZM179.4,59.9l.3-.5-.8-.9c-4.6-4.2-10.3-5.6-16.3-6-4-.3-8-.5-12.1-.5a36.2,36.2,0,0,1-20.2-5.7c-.8-.5-2.1-.2-3.2-.3s-.2,2.5.3,3.3c2.3,4,6.1,5.8,10.3,7s10.8,1,16.3.6C162.7,56.3,171.4,55,179.4,59.9Zm183.7,60c-.2-.3-.4-1-.5-1-3.3-.3-3-2.9-3.3-5.1a5.3,5.3,0,0,0-.4-1.7c-1.3-2.7-2.7-5.4-3.8-8.2-2.1-5.9-4-11.9-6-17.8a2.9,2.9,0,0,0-.7-1.6,7.6,7.6,0,0,0-1.6-.6c-.1.5-.5,1-.4,1.5s.7,2,.9,3.1c2.1,8.3,6.8,15.7,8.1,24.2a4.7,4.7,0,0,0,.6.9,23.9,23.9,0,0,1,1.6,3.2C358.7,120.5,359.1,120.8,363.1,119.9ZM263.3,70.8c3.9-1.5,4-1.5,3.6-5.2-.6-6.1-.2-12,3.9-17.4C265,50.5,261.9,59.9,263.3,70.8Zm107.1-7.5-12.8-8.9c-1.4,4,3,6.9,1.5,10.9ZM230.2,92.5v.6l3.9,2.6c1.1.7,7.5.1,8.3-.8a.9.9,0,0,0,.3-.6l2.3-5.6Zm-97.1,17.6a3.6,3.6,0,0,0-.7-1,1,1,0,0,0-.9.2c-2.4,1.8-4.7,3.5-7,5.4-.4.4-.6,1.8-.3,2a23.2,23.2,0,0,0,4,3c.2.1,1.2-.3,1.3-.7C130.8,116.1,131.9,113.2,133.1,110.1Zm3.9.3c.6,3.2,1.1,6.1,1.7,8.9.2.6,1.1,1.4,1.4,1.3a28.2,28.2,0,0,0,4.6-2.3,1.6,1.6,0,0,0,0-1.5l-6-7a1.7,1.7,0,0,0-1.2-.2C137.2,109.8,137.1,110.3,137,110.4Zm74.9,11.4c2.3-1,4.4-1.8,6.3-2.8.3-.2.3-1.5,0-1.9s-3.2-3.6-4.9-5.4a1.5,1.5,0,0,0-1.2-.4c-.4.1-.9.7-.8,1C211.4,115.2,211.6,118.2,211.9,121.8Zm-77.1-.4c2.4.1,2.9-.5,2.5-2.8a68.5,68.5,0,0,0-1.4-7.4c-.1-.4-.6-.8-.9-1.2s-.9.6-1,1.1l-2.3,6.3c-1.2,3.3-.9,3.7,2.7,4Zm-15.6-17.2c-.1,2.6.5,3.1,3,2.7l7.2-1.3c.4-.1.7-.6,1.1-.8s-.6-1-1-1.2l-6.3-2.1C119.8,100.4,119.3,100.7,119.2,104.2Zm105.4,2.7c0-.3-.2-1-.2-1.7s-.9-2.5-2.7-1.6l-5.9,2.2c-.4.2-1.1.8-1.1,1.3s.7.9,1.2,1.1l5.4,1.6C224.3,110.7,224.6,110.4,224.6,106.9ZM150.2,77.3l-9.6-9.2L137.9,75Zm46.6,35,8.6-3.7a1.9,1.9,0,0,0,.7-1.2,1.5,1.5,0,0,0-.9-1l-9.1-1.7C196.4,107.5,196.6,109.7,196.8,112.3Zm13.6,4.4c-.2-1.3-.2-2.7-.4-4.1a1.8,1.8,0,0,0-.8-1.1c-.2-.1-.8.2-1,.5-1.5,2-2.9,4-4.3,6.1a2,2,0,0,0-.1,1.5l6.1,1.7c.2-1.3.3-2.6.5-3.8Zm-79-9.5c-.8-.3-1.3-.6-1.7-.5l-8.1,1.6c-1.5.3-2.1,1.3-1.3,2.9l.9,1.7c.6,1.5,1.5,1.6,2.7.6l6.2-5C130.5,108.2,130.7,107.8,131.4,107.2Zm15.7,9.1,2.1-2.8c1.1-1.5.8-2.5-.9-3.1l-7.3-2.6a3.9,3.9,0,0,0-1.5.2,6.5,6.5,0,0,0,.4,1.3l5.6,6A4.4,4.4,0,0,0,147.1,116.3Zm-6.8-11.2-.2.8,1.8.9,5.3,1.8c3.9,1.4,4.4,1.1,4.4-3.2,0-.2,0-.5-.1-.6s-.8-1.2-1.1-1.2C147,104,143.6,104.6,140.3,105.1ZM347.6,82.2c-.7-2.2-1.6-3.4-4-2.9A21.1,21.1,0,0,1,331,77.7a4.7,4.7,0,0,0-1.7-.1C335,81,340.5,84.2,347.6,82.2ZM197.3,113.5l4.7,5.3,5.1-7.4c.2-.4.3-1.1,0-1.3a1.1,1.1,0,0,0-1.2-.3Zm23,4.3c1.4-2.2,2.5-4,3.9-6-3.3-.9-6.1-1.7-9-2.3a1.5,1.5,0,0,0-1.2.4c-.1,0,.1.8.3,1Zm-79.3-14c3.1-.5,5.9-.9,8.6-1.5.5-.1.9-1.1,1.3-1.7s-1.2-1.1-1.8-1.1a10.1,10.1,0,0,0-3,.2c-2.1.2-4.2.1-5.7,2a2,2,0,0,0-.5,1.4C140.1,103.5,140.7,103.7,141,103.8Zm65.4-.7a30.6,30.6,0,0,1-2.3-3c-1.3-2.2-3.1-2-4.7-.9s-1.4,2.1-2.1,3.3a10.1,10.1,0,0,0,2.8.9C202.1,103.5,204,103.2,206.4,103.1Zm11-7.2-.3-.5c-1.7.3-3.4.4-5.1.8a1.8,1.8,0,0,0-1.2,1.3,32,32,0,0,0-.1,4.4C215.2,101.8,215.4,98,217.4,95.9Zm-88.7,3.5.2-.5-2.2-2.5c-2-2.2-4.2-1.8-5.6.9s-.1,1.7,1.1,1.8Zm18-4.5c-6-1.5-7.4-.7-7.9,4.1C142.5,99.9,144,96.7,146.7,94.9Zm-19.6-.3c2.4,4.1,3.9,5.1,6.7,4.3-.3-1.6-.7-3.2-1-4.8Zm76.6,3.2c1.4,1.7,2.4,3,3.5,4.1a1.7,1.7,0,0,0,1.6.5c.4-.1.7-.9.8-1.4s0-2.7,0-4.3ZM134,92.6a33.8,33.8,0,0,0,4.5-.1c.5,0,1.2-.8,1.3-1.2a2.3,2.3,0,0,0-.9-1.8,6.1,6.1,0,0,0-2.7-.4C133.3,89,132.9,89.6,134,92.6Zm89.5,8.5c-.7-.3-1.1-.8-1.4-.7l-7.8,2.5c-.3.2-.4,1-.7,1.6s1.1.4,1.5.2c2.4-.7,4.8-1.6,7.1-2.5A9.5,9.5,0,0,0,223.5,101.1Zm-89.4-7c.3,1.5.5,2.9.8,4.2a1.4,1.4,0,0,0,1,.8,1.7,1.7,0,0,0,1.3-.7c.6-1.3,1-2.7,1.6-4.3Zm90.7,3.8,5.1-2v-.6l-7.5-.6Zm-9,2.3.3.4,5.6-1.7-2.8-3.2Zm-6.3-5.5c-1-2-4.5-1.2-7.2,1.6Zm-65.2,4.1,3.2-.3,2.3-.3C148.6,95.1,147.7,95.1,144.3,98.8Zm45.5,3.4v.5l3.8.7c.3-1,.6-1.8.9-3Zm-63.9-1.6c1.8.8,3.5,2.2,5.9,1.7C130.2,99.4,127.8,100.9,125.9,100.6Zm15-7.9,5.4.5C142.9,90.3,141.2,89.8,140.9,92.7Zm-15.7.5,4.8-.3C127.9,90.3,127.5,90.3,125.2,93.2Zm-11.3,4.3c2.7,1.7,3.5,1.4,4-1.2Zm38.6-2c.8,2.5,1.4,2.7,3.9,1Z" fill="#f4711b"/><path d="M293.6,168.2v55h10v11.4H271V223.3h10.5V165.9H270.9V154.2h27.3A2.4,2.4,0,0,1,301,156c6.3,15.6,12.7,31.2,19,46.6l9.2-22.4c3.4-8.1,6.7-16.3,10.1-24.4.3-.7,1.2-1.6,1.8-1.6H369v11.6H358.5v57.6H369v11.3H336.6V223.4h9.9V167.9c-2.8,6.6-5.3,12.8-7.9,18.9-4.8,11.6-9.7,23.1-14.5,34.7a2.5,2.5,0,0,1-2.8,1.9c-4.4-.1-4.4,0-6.1-4.1-7-16.9-14.1-33.7-21.1-50.5C294.1,168.7,293.9,168.6,293.6,168.2Z" fill="#f4711b"/><path d="M22.3,197v26.3h9.6v11.3H0c0-3.4,0-6.9.1-10.3,0-.3,1-.9,1.5-.9h8.5V165.8H.1V154.2H31.9v11.6H22.3v19.5H56.1c1.9,0,2.4-.6,2.4-2.5-.2-4.9-.1-9.9-.1-14.9,0-.7-.1-1.4-.1-2.3h-10V154.2H80.7v11.5H70.5v57.6H80.9c0,3.7,0,7.1-.1,10.5,0,.4-.7.9-1.1.9H48.8c-.2,0-.3-.1-.5-.3v-11h10V197Z" fill="#f4711b"/><path d="M190.3,223.4V165.8h-10V154.2h43.9c4.7,0,9.4.4,13.9,2.4,14.8,6.7,14.3,26.2,5.4,33.6a40.4,40.4,0,0,1-5.2,3.2c6.4,3.5,9.2,9.3,8.9,16.8-.2,4.4-.1,8.7-.1,13.2h10.3v11.3H235.7c0-1.1-.1-2.1-.2-3.2-.2-7.7-.4-15.5-.7-23.3-.2-6.2-3.5-9.8-9.6-10s-15.2-.1-23-.1v25.2h10v11.4h-32V223.4Zm11.9-36.6c8.9,0,17.5.2,26.1-.2a13.2,13.2,0,0,0,6.8-2.9c3.6-2.7,4.2-6.7,2.9-10.9s-3.8-6.7-8.2-6.7c-9.1-.2-18.1-.2-27.2-.2l-.4.2Z" fill="#f4711b"/><path d="M439.3,176.5V165.9h-32V185h27.2v11.4H407.3v26.8H439V208h11.5v26.6h-66V223.3H395V165.9H384.5V154.2h65.7v22.3Z" fill="#f4711b"/><path d="M106.5,165.8H95.9V154.3h66v22.2H150.7V165.9h-32v19.2h27.2v11.3H118.8v26.8h31.5V208h11.6v26.6h-66V223.4h10.6Z" fill="#f4711b"/><path d="M481.3,228.8v5.7H470.4v-28h10.5c.4,1.3.6,2.7,1,4,2.6,9.4,9.3,14.8,19,15.3,4.7.3,9.2.2,13.6-1.7s8.3-6.4,8.3-11.8a11.7,11.7,0,0,0-8.3-11.4c-5.5-1.7-11.2-2.6-16.8-4s-8.8-2.2-13-3.8c-15.3-5.9-16.3-26.1-4.1-35.1,9.7-7,25.4-7.6,35.3-.9l3.3,2.7v-5.6h11v23.6H519.8c-.3,0-.8-.6-.9-.9-1.6-7-6.5-10.5-12.8-12.5s-10.7-1.7-15.7,1a11,11,0,0,0-5.9,7.2c-.9,3.3.6,6.8,3.7,9.2s7.8,3.4,11.9,4.2,8.4,1.2,12.6,2.2a48.5,48.5,0,0,1,9.9,3.5c8.9,4.4,12.1,12.1,11.8,21.5-.3,11.6-7,19.6-19.3,22.9-10.5,2.8-20.4,1.6-29.7-4.2A41.9,41.9,0,0,1,481.3,228.8Z" fill="#f4711b"/><path d="M410.2,125.2v5.3H111.9v-5.2h1.9c6,.1,11.9-.3,18,1.3,3.2.8,7-.3,10.6-.6a33.5,33.5,0,0,1,4.4-.7h53.4a10.9,10.9,0,0,1,3.6.6,21.7,21.7,0,0,0,13.8-.2,8,8,0,0,1,2.7-.4H410.2Z" fill="#f4711b"/><path d="M362.4,13.2l2,1.2-3.1,1.7,2.7,2.5c-4.1-.7-5.4,3.3-8.2,4.8-2.7-1.5-1.6-4.6-3.1-6.8l-6.2.4c-.5,3.7.8,7,2.3,10.3h0l-3.1,2.2.2.5,3.4-1.4c3.4,5.5,4.1,11.3,2.5,18.1-2.2-1-4.4-1.6-6.3-2.8s-5.8-4.4-8.8-6.6-4.3-3.9-7.4-4a35,35,0,0,1-1.7-5.5,6,6,0,0,1,.3-3.5c.9-2.4,1.1-5,1.7-7.5s1.6-2.7,1.5-4.4a.7.7,0,0,1,.3-.6c3-1.7,3-5.9,6-7.6C336.6,3,335.7,2,334.9,1l.3-.5c2.9,2.1,7,.9,9.7,4a4,4,0,0,0,2.5.9,2.5,2.5,0,0,0,1.6-.5,2,2,0,0,0-.2-1.1,5.7,5.7,0,0,0-1.8.3c-.2,0-.3.5-.4.7l-3.8-2.7c2.4-2.8,8.1-2.9,10.1.2s4.2,3.7,7,4.5a23.2,23.2,0,0,1,4.6,1.8,4.3,4.3,0,0,1,1.7,2.2c.6,1.3-.1,1.7-1.4,1.8a7.3,7.3,0,0,0-2.4.7l-.9-.4-2.1-1.5-.6.9,3.3,2Zm-7.1,9,2.7-2.4a5.8,5.8,0,0,0,1.3-1.4,2.4,2.4,0,0,0,.5-1.6c-.4-2.1-1.3-2.5-3.6-1.9s-2.9,1.1-2,3.2A29.9,29.9,0,0,1,355.3,22.2Z" fill="#f4711b"/><path d="M394.1,123.2c.1-.5.1-.8.3-1,4-3.1,3.6-7.5,3.1-11.7a63.2,63.2,0,0,0-2.9-10.3,2.6,2.6,0,0,0-2.1-1.4c-1.2,0-2.3,2.4-1.9,3.5s1.1,2.7,1.5,4.1,1.3,5.8,2,8.8c0,.4.1.8.1,1.2s1.1,3.6.4,4.2a8.5,8.5,0,0,1-5.1,2.5c-5,.3-10.1.1-15.1.1-1.7,0-2.3-1.2-2.6-2.9H385a6.5,6.5,0,0,0,3.1-.8,2.8,2.8,0,0,0,1.6-3.7c-1.1-3.4-1.9-7-3.6-10.2-2.6-5-2.8-9.6.1-14.7a24.4,24.4,0,0,0,3.6-14.4c-.1-2.7,1.2-5.7,2.3-8.4s2.1-5.9,5-7.6c.2-.1.3-.4.5-.7s.1-.4.2-.7c-2.6-1.2-1.5-3.7-2-5.7a24,24,0,0,1-.3-2.8c-.1-.8-.5-2-.2-2.5s1.7-.4,2.5-.6l2.9-.8c.3-.1.5-.5.8-.7s1.8-3,3.8-2.1a8,8,0,0,1,4.8,4.9c.2.5-.2,1.3-.5,1.8a22.5,22.5,0,0,1-2.1,2.4c-.9,1.1-1.6,2-1.1,3.7s-.2,2.9-2.5,2.9c.5.8.7,1.7,1.3,2.1,3.8,3.1,4,7.8,5.2,12s-.1,5.2-2.8,6.8-2.7,2.6-2,5,2,7.8,3,11.9l-2.3.3c-1.7.2-3.6-.3-4.1,2.3s-1.4,3.2-.5,5.1.6,3.7.8,5.6.3,4.8.4,7.3a2.3,2.3,0,0,1-.2,1.2C401.6,121.4,397.1,123.6,394.1,123.2Zm6.1-22h.6c.6-2.8,1.3-5.5,2.1-8.7-2.6.5-2.8-.7-2.8-2.5s-.4-2.4-.8-4.1a6.2,6.2,0,0,0,1-1.9c.2-.6-.3-1.3-.4-2s-1.7.2-2,.7a6.1,6.1,0,0,0-.7,2.4,14.3,14.3,0,0,1-.8,2.2l-.6.2c0-3.6-3-3.3-4.8-4.4-1.9,4.3-3.6,8.4-5.5,12.5-1.1,2.4-.3,4.5.9,6.6.2.3.8.7,1.1.6a1.9,1.9,0,0,0,1.2-1,10.5,10.5,0,0,0,.7-2.3l-.7-.8c3.1-2.3,3.2-5.9,4.5-9a23,23,0,0,1,1.4,4.2c.9,3.1,1.7,6.2,2.6,9.3.4,1.1,1,2,2.2,1.2s-.3-3.2-.5-4.7h.6A7.7,7.7,0,0,1,400.2,101.2ZM395.6,64l.5.2c1.4-.9,2.8-1.6,4.1-2.6a6.6,6.6,0,0,0,2.4-2.6c.7-2.3,1.9-4.7-1-6.6-.3-.2-.2-1.2-.5-1.3s-2.5-1.2-3-.8c-2.7,2.2-1.7,7.3,1.6,8.6Zm1.5,17.3-2.8-3.6-3,4.3C393.7,81.6,395.7,83.7,397.1,81.3ZM387,105l2.5,3.1a3.7,3.7,0,0,0,1.4-.7c-.3-1.2-.7-2.3-1.1-3.6Zm10.3,2.5,2.3,2.3c.4-.5,1.1-.9,1.1-1.4s0-2.4-1.5-2.2S398.2,106.8,397.3,107.5Z" fill="#f4711b"/><path d="M258.9,263.1c5.9.3,11.8,0,17.4,1,9.6,1.7,13.8,12.3,7.9,19.5-1.3,1.6-3.2,2.7-5,4.2,7.3,5.4,10.8,14,16.5,21.7-2.9,0-5.2.1-7.6-.1-.5,0-1-.9-1.4-1.4-3.2-4.6-6.3-9.2-9.5-13.7s-6.4-5.7-11.4-4.7v19.8h-6.9Zm7,5.6v15.1c3.3-.4,6.5-.4,9.4-1.2s4.4-3.4,4.2-6.9-1.6-5.5-4.7-6.1A83.8,83.8,0,0,0,265.9,268.7Z" fill="#f4711b"/><path d="M243.5,309.5a62,62,0,0,1-6.2-.1c-.6,0-1.4-.8-1.7-1.5-1.6-3.5-3-7-4.5-10.5a2.1,2.1,0,0,0-2.4-1.6H212.1c-1.4,0-2.1.4-2.5,1.7-1.4,3.5-2.9,6.9-4.2,10.4a2.1,2.1,0,0,1-2.4,1.6c-1.7-.1-3.4,0-5.4,0,.3-.8.4-1.3.6-1.8,6.3-14.2,12.6-28.5,18.8-42.7.6-1.3,1.2-2.1,2.8-2s2.8,0,3.6,1.9q9.6,21.5,19.4,42.8A15.7,15.7,0,0,0,243.5,309.5Zm-23.6-37.9c-2.5,6.3-4.7,12-6.9,17.9h14.7Z" fill="#f4711b"/><path d="M161.1,263.6c6.3,0,12.4-.4,18.5.1,8.4.8,12.9,7.4,11.4,15.6a10.9,10.9,0,0,1-7.4,8.6,32,32,0,0,1-8.1,1.4c-2.5.2-5.1.1-7.9.1v20h-6.5Zm6.6,19.7a91.5,91.5,0,0,0,10.5-.1c3.5-.3,5.7-2.9,6.1-6.3s-1.3-6.4-4.5-7a118.4,118.4,0,0,0-12.1-1Z" fill="#f4711b"/><path d="M281,74.9c.3-1.3.4-2.2.7-3.1a68.5,68.5,0,0,1,14-26c1.7-2,3.5-3.4,6.7-2.3s5.6.9,8.7,1.3a29.7,29.7,0,0,0,3.2,18.4A262.1,262.1,0,0,1,281,74.9Z" fill="#f4711b"/><path d="M342.3,297.6c1.6,1.3,2.8,2.4,4.1,3.3,3.7,2.6,7.8,3.8,12.3,2.7,2.5-.6,4.4-1.9,5-4.5s-.6-4.6-2.5-6-4.9-3.2-7.4-4.8-5.9-3.5-8.3-5.8a10.5,10.5,0,0,1,2-17.2c6.6-3.7,13.4-3.3,20.1.2a2.2,2.2,0,0,1,.9,1.7,56,56,0,0,1,.1,5.9l-2.7-1.6c-3.8-2.3-7.9-3.5-12.4-2.4-2.2.5-4.1,1.5-4.6,3.9a5.2,5.2,0,0,0,2.6,5.8c2.8,1.8,5.8,3.4,8.7,5.1a36.5,36.5,0,0,1,5,3.4c4.4,3.6,6.2,8.2,4.6,13.7s-5.8,8-11.1,8.6a23.3,23.3,0,0,1-14.4-2.6,3.2,3.2,0,0,1-2.1-3.3A60.5,60.5,0,0,0,342.3,297.6Z" fill="#f4711b"/><path d="M326,35.8a10.2,10.2,0,0,1,7.4,3.5l8.9,8.7c-6.9,5.9-14.7,9.4-22.8,13.5,0-1.5-.2-2.8-.1-4,.1-4.5.2-8.9.5-13.3a3.8,3.8,0,0,1,1.5-2.9c3.5-2.3,3.4-5.8,3.5-9.3,0-.3-.4-.7-.6-1s-1-1-1-1.4c.1-2.9-1.6-5.8-.2-8.8a2.7,2.7,0,0,0,.3-1.9c-.5-1.8-.4-3.3,1.1-4.6a1,1,0,0,0,.4-.7c-.9-2.3.6-3.9,2.1-5.6l-3-2.5,10.7-.6c-6.9,4.4-8.6,11.6-9.2,19.1C325.3,27.8,325.8,31.7,326,35.8Z" fill="#f4711b"/><path d="M320.2,309.5h-6.4V263.6h6.4Z" fill="#f4711b"/><path d="M433.1,150.3H411.8c-.7,0-1.7,0-2.1-.4l-5.9-6.4,1.8-.2c6.7,0,13.3-.1,19.9,0a5.3,5.3,0,0,1,2.9,1.4C430,146.3,431.3,148.2,433.1,150.3Z" fill="#f4711b"/><path d="M198.3,123.1H148.2c1.5-1.9,2.9-2.9,5.3-2.9h39.3C195.2,120.2,196.9,120.8,198.3,123.1Z" fill="#f4711b"/><path d="M316.8,43V61.6l-.4.2a20.3,20.3,0,0,1-1.3-1.8c-2-4.8-2.9-9.8-1.4-14.9C314,44.2,315.7,43.7,316.8,43Z" fill="#f4711b"/><path d="M111.9,123v-2.5c5.7-1,8-.5,10.6,2.5Z" fill="#f4711b"/><path d="M410.3,120.5a8.5,8.5,0,0,1,0,1.6,3.1,3.1,0,0,1-.1.9h-8.1C402.6,120,405.4,120,410.3,120.5Z" fill="#f4711b"/></svg>