<svg xmlns="http://www.w3.org/2000/svg" xmlns:xlink="http://www.w3.org/1999/xlink" viewBox="0 0 931.9 654.7"><defs><linearGradient id="a" y1="327.35" x2="931.92" y2="327.35" gradientUnits="userSpaceOnUse"><stop offset="0" stop-color="#4a7bd6"/><stop offset="1" stop-color="#5022d1"/></linearGradient><linearGradient id="b" x1="137.97" y1="62.57" x2="480.96" y2="62.57" gradientTransform="translate(7.9 -86.9) rotate(16.2)" gradientUnits="userSpaceOnUse"><stop offset="0" stop-color="#4a7bd6"/><stop offset="1" stop-color="#fff"/></linearGradient><linearGradient id="c" x1="613.86" y1="18.39" x2="956.85" y2="18.39" gradientTransform="translate(1109.5 -419.5) rotate(106.2)" xlink:href="#b"/></defs><path d="M0,0V87.3a63.7,63.7,0,0,0,32.1,55.3L931.9,654.7V0Z" fill="url(#a)"/><path d="M126.3,0h0L111.6,50.3a72.1,72.1,0,0,0,49,89.3l191,55.6a71.9,71.9,0,0,0,89.3-49L483.5,0Z" opacity="0.03" fill="url(#b)"/><path d="M931.9,168.2h0l-50.3-14.7a72,72,0,0,0-89.3,49l-55.6,191a72,72,0,0,0,49,89.3l146.2,42.6Z" opacity="0.03" fill="url(#c)"/></svg>