<svg xmlns="http://www.w3.org/2000/svg" xmlns:xlink="http://www.w3.org/1999/xlink" viewBox="0 0 12.6 12.6"><defs><linearGradient id="a" y1="6.29" x2="12.57" y2="6.29" gradientUnits="userSpaceOnUse"><stop offset="0" stop-color="#4a61d6"/><stop offset="1" stop-color="#5c22d1"/></linearGradient></defs><circle cx="6.3" cy="6.3" r="6.3" fill="url(#a)"/><path d="M9.5,5.6H9V4.4a.6.6,0,0,0-.6-.6H7.3V2.9a.7.7,0,0,0-.7-.7H5.1a.8.8,0,0,0-.8.7v.9H3a.6.6,0,0,0-.6.6V5.6h.3A1.2,1.2,0,0,1,4,6.8,1.3,1.3,0,0,1,2.7,8.1H2.4V9.2a.7.7,0,0,0,.6.7H4.6V9.4A1.2,1.2,0,1,1,7,9.4v.5H8.4c.4,0,.6-.3.6-.7V8h.5a1.2,1.2,0,0,0,1.3-1.2A1.2,1.2,0,0,0,9.5,5.6ZM6.6,3.8H5.1V3.1a.2.2,0,0,1,.2-.2h1c.1,0,.3.1.3.2Z" fill="#f9fafc"/></svg>