<svg xmlns="http://www.w3.org/2000/svg" xmlns:xlink="http://www.w3.org/1999/xlink" viewBox="0 0 27.5 25.3"><defs><linearGradient id="a" y1="12.64" x2="27.53" y2="12.64" gradientUnits="userSpaceOnUse"><stop offset="0" stop-color="#4a61d6"/><stop offset="1" stop-color="#5c22d1"/></linearGradient></defs><path d="M23.5,11.1H21.9V7.5a2,2,0,0,0-2-2.1H16.2V2.5A2.5,2.5,0,0,0,13.8,0H8.9A2.5,2.5,0,0,0,6.4,2.5V5.4H2.1A2.1,2.1,0,0,0,0,7.5v3.7H1.2a4.1,4.1,0,0,1,0,8.2H0v3.8a2.1,2.1,0,0,0,2.1,2.1H7.2V23.9a4.1,4.1,0,0,1,8.2,0v1.4h4.5a2,2,0,0,0,2-2.1V19.3h1.6a4.1,4.1,0,0,0,0-8.2ZM13.7,5.4H8.8V3.1a.9.9,0,0,1,.9-.8h3.2a.8.8,0,0,1,.8.8Z" fill="url(#a)"/></svg>